# xmcd CD database file
#
# Track frame offsets:
#	150
#	18267
#	41482
#	72523
#	100481
#	120581
#	150858
#	164411
#	188563
#
# Disc length: 2808 seconds
#
# Revision: 0
# Processed by: cddbd v1.5.2PL0 Copyright (c) Steve Scherf et al.
# Submitted via: CDex 1.70beta2
#
DISCID=690af609
DTITLE=Niels-Henning Ørsted Pedersen, Niels Lan Doky og Klaus Suonsaari - The Music of Tom Harrell
DYEAR=2000
DGENRE=Jazz
TTITLE0=Journey To The Centre
TTITLE1=Buffalo Wings
TTITLE2=Songflower
TTITLE3=Terrestris
TTITLE4=Water's Edge
TTITLE5=Bell
TTITLE6=Bright
TTITLE7=Serenity
TTITLE8=Camera In A Bag
EXTD=YEAR: 2000
EXTT0=
EXTT1=
EXTT2=
EXTT3=
EXTT4=
EXTT5=
EXTT6=
EXTT7=
EXTT8=
PLAYORDER=
